
<svg width="57" height="54" viewBox="0 0 57 54" fill="none" xmlns="http://www.w3.org/2000/svg">
<path d="M7.29945 53.4491C7.08246 53.392 6.85405 53.3577 6.63707 53.2892C5.48361 52.9237 4.69561 52.17 4.43294 50.9708C3.89618 48.4469 3.37084 45.923 2.86835 43.3877C2.66278 42.3713 3.32516 41.5947 4.37584 41.5833C4.95827 41.5719 5.55213 41.5833 6.24878 41.5833C6.14599 41.1151 6.08889 40.6925 5.96327 40.2928C5.20952 38.0087 3.51931 36.7068 1.36086 35.896C1.14387 35.816 0.892626 35.7932 0.72132 35.6676C0.481493 35.4963 0.150302 35.245 0.150302 35.028C0.138882 34.811 0.447231 34.457 0.687059 34.3656C2.0575 33.8746 3.48505 33.6918 4.94685 33.9317C5.03822 33.9431 5.12958 33.9545 5.31231 33.8403C4.64992 33.2921 4.01038 32.7211 3.31374 32.2072C2.79983 31.8303 2.19455 31.5562 1.68063 31.1679C1.47506 31.0195 1.28092 30.6769 1.30376 30.4484C1.3266 30.2543 1.64637 29.9688 1.86336 29.9231C4.05607 29.5234 6.15741 29.6947 7.97325 31.1337C8.64705 31.659 9.14955 32.3899 9.75483 33.0523C9.78909 33.0066 9.89187 32.9038 9.97181 32.7782C12.2216 29.7061 15.7734 29.649 18.5599 30.8824C18.7655 30.9738 19.0167 31.3278 18.9825 31.522C18.9482 31.7504 18.6627 32.0245 18.4229 32.1272C17.4293 32.5841 16.4015 32.9838 15.3965 33.4177C15.2252 33.4863 15.0767 33.6119 14.894 33.7261C15.7734 33.886 16.5956 34.023 17.4179 34.1829C17.6006 34.2172 17.829 34.2286 17.9546 34.3428C18.1831 34.5369 18.48 34.7882 18.5028 35.028C18.5142 35.2222 18.2059 35.5191 17.9661 35.6447C16.9497 36.1815 15.8419 36.5698 14.894 37.1979C13.6035 38.0544 12.8269 39.3449 12.4957 40.8752C12.45 41.0808 12.4386 41.2864 12.4044 41.5719C13.1695 41.5719 13.8776 41.5719 14.5971 41.5719C15.8533 41.5719 16.4472 42.2799 16.2073 43.5133C15.7277 45.9116 15.2366 48.3099 14.7455 50.7082C14.4486 52.1928 13.5806 53.095 12.0732 53.3577C12.0046 53.3691 11.9361 53.4148 11.8676 53.4376C10.3373 53.4491 8.81836 53.4491 7.29945 53.4491ZM14.9968 42.9537C14.8369 42.9081 14.7684 42.8738 14.6884 42.8738C11.2966 42.8738 7.89331 42.8738 4.50146 42.8624C4.13601 42.8624 4.11317 43.0337 4.18169 43.3306C4.68419 45.7403 5.16384 48.1614 5.66634 50.5711C5.88332 51.5875 6.52286 52.09 7.56212 52.1015C8.88688 52.1129 10.2231 52.1129 11.5478 52.1015C12.5985 52.09 13.238 51.5647 13.455 50.514C13.8433 48.6639 14.2202 46.8024 14.5971 44.9409C14.7341 44.2785 14.8711 43.6161 14.9968 42.9537ZM3.98754 31.0195C4.61566 31.5448 5.1981 31.9331 5.63208 32.4356C6.60281 33.5434 7.50502 34.7197 8.40722 35.8845C8.65847 36.2043 8.63563 36.5812 8.2816 36.8324C7.95041 37.0608 7.63064 36.9581 7.37939 36.6611C7.29945 36.5812 7.23093 36.4898 7.15098 36.4099C6.04321 35.3364 4.68419 35.0394 3.1767 35.1879C5.67776 36.604 7.19667 38.6711 7.56212 41.549C8.73841 41.549 9.89187 41.549 11.0567 41.549C11.4108 38.6597 12.9525 36.6154 15.4307 35.1879C14.323 35.0623 13.318 35.2107 12.3701 35.7247C12.0046 35.9188 11.6506 36.0444 11.3537 35.6561C11.0453 35.245 11.2737 34.9252 11.5935 34.6169C12.8155 33.452 14.1859 32.5155 15.7048 31.7961C15.8305 31.739 15.9332 31.659 16.0931 31.5676C14.3001 31.088 12.2559 31.8646 11.0682 33.4748C10.7484 33.9202 10.5314 34.4342 10.2116 34.8796C10.0632 35.0851 9.77767 35.3135 9.5721 35.3021C9.36653 35.2907 9.13813 35.028 8.96682 34.8225C8.86404 34.7082 8.8412 34.5027 8.7841 34.3542C7.91615 32.2757 6.34014 31.2022 3.98754 31.0195Z" fill="black" stroke="black" stroke-width="0.3"/>
<path d="M47.7619 33.1895C47.7619 36.9125 47.7619 40.5214 47.7619 44.2216C47.956 44.2216 48.1387 44.2216 48.3215 44.2216C49.532 44.2216 50.754 44.2216 51.9646 44.2216C52.5584 44.2216 52.7754 44.4271 52.7754 44.9867C52.7868 47.5106 52.7868 50.0345 52.7754 52.5584C52.7754 53.1523 52.5584 53.3464 51.9189 53.3464C48.9382 53.3464 45.9574 53.3464 42.9767 53.3464C34.9025 53.3464 26.8283 53.3464 18.7656 53.3464C18.5714 53.3464 18.343 53.415 18.206 53.3236C17.9661 53.1751 17.6235 52.9239 17.6235 52.7183C17.6235 52.5127 17.9547 52.2501 18.1946 52.0902C18.3316 51.9988 18.56 52.0674 18.7542 52.0674C29.4093 52.0674 40.0645 52.0674 50.7197 52.0674C50.9596 52.0674 51.1994 52.0674 51.4849 52.0674C51.4849 49.8746 51.4849 47.7276 51.4849 45.4892C51.2679 45.4892 51.0509 45.4892 50.8339 45.4892C47.4878 45.4892 44.153 45.4892 40.8069 45.4892C39.859 45.4892 39.7334 45.3522 39.7334 44.3929C39.7334 41.7319 39.7334 39.071 39.7334 36.4215C39.7334 36.2045 39.7334 35.9761 39.7334 35.6906C39.4364 35.6906 39.2194 35.6906 39.0024 35.6906C35.3936 35.6906 31.7848 35.6906 28.1759 35.6906C27.308 35.6906 27.1595 35.5307 27.1595 34.6513C27.1595 31.9561 27.171 29.2609 27.171 26.5657C27.171 26.3601 27.171 26.1546 27.171 25.8805C26.9197 25.8805 26.7256 25.8805 26.52 25.8805C22.9112 25.8805 19.3023 25.8805 15.6935 25.8805C14.7456 25.8805 14.62 25.7548 14.62 24.7841C14.62 22.1117 14.62 19.428 14.62 16.7556C14.62 16.55 14.62 16.3445 14.62 16.1161C12.4273 16.1161 10.2917 16.1161 8.07611 16.1161C8.07611 16.3559 8.07611 16.5843 8.07611 16.8013C8.07611 20.0675 8.07611 23.3337 8.07611 26.5999C8.07611 26.7713 8.08754 26.9426 8.06469 27.1139C8.03043 27.5022 7.82487 27.7762 7.42515 27.7762C7.02544 27.7762 6.81987 27.5136 6.77419 27.1253C6.76277 27.0111 6.76277 26.8969 6.76277 26.7827C6.76277 23.1396 6.76277 19.4851 6.76277 15.842C6.76277 14.9854 6.93408 14.8141 7.79061 14.8141C8.68139 14.8141 9.57218 14.8141 10.5087 14.8141C10.5087 11.9705 10.5087 9.14964 10.5087 6.2717C9.53792 6.2717 8.57861 6.29455 7.60788 6.2717C6.2146 6.22602 5.04972 5.26671 4.71853 3.93053C4.38734 2.60577 4.99262 1.17822 6.23744 0.561524C6.72851 0.321696 7.32237 0.184652 7.87055 0.173231C10.7713 0.13897 13.6835 0.161811 16.5843 0.150391C17.4979 0.150391 18.2631 0.481581 18.9711 1.07544C29.455 9.88054 39.9503 18.6742 50.4342 27.4679C52.1473 28.9069 53.8832 30.323 55.5734 31.7962C57.1494 33.1667 56.9667 35.5764 55.2308 36.6727C54.0773 37.4036 52.6955 37.2894 51.5877 36.3644C50.4456 35.4165 49.315 34.4686 48.1844 33.5093C48.0702 33.4179 47.956 33.338 47.7619 33.1895ZM12.2445 1.46373C10.7028 1.46373 9.17247 1.45231 7.63072 1.47515C6.78561 1.48657 6.11181 2.10327 5.96335 2.91412C5.81488 3.70212 6.28312 4.54723 7.07112 4.82132C7.36805 4.9241 7.69924 4.94694 8.01901 4.94694C10.5201 4.95836 13.0326 4.93552 15.5336 4.96978C15.8762 4.96978 16.2988 5.10683 16.5614 5.32381C27.1367 14.1632 37.7005 23.014 48.2644 31.8762C49.6576 33.0525 51.0509 34.2287 52.4556 35.3822C53.2322 36.0217 54.3628 35.9304 54.9681 35.2109C55.5848 34.4686 55.5049 33.475 54.7397 32.7669C54.557 32.5956 54.3628 32.4472 54.1801 32.2873C49.5663 28.4158 44.9525 24.5557 40.3386 20.6842C32.9382 14.4829 25.5493 8.29311 18.1603 2.09185C17.635 1.64646 17.0868 1.44089 16.4016 1.45231C15.0197 1.48657 13.6264 1.46373 12.2445 1.46373ZM15.8991 24.5785C18.2745 24.5785 20.5814 24.5785 22.8997 24.5785C22.9112 24.4529 22.9226 24.3616 22.9226 24.2702C22.9226 20.4215 22.934 16.5615 22.9112 12.7128C22.9112 12.5072 22.7741 12.2331 22.6142 12.0961C20.4101 10.2346 18.206 8.38447 15.9904 6.53437C15.8648 6.43159 15.7049 6.28312 15.5679 6.28312C14.3459 6.26028 13.1125 6.2717 11.8905 6.2717C11.8905 9.14964 11.8905 11.9476 11.8905 14.8027C12.8498 14.8027 13.7635 14.8027 14.6885 14.8027C15.8191 14.8027 15.8991 14.8827 15.8991 15.9904C15.8991 18.6285 15.8991 21.2666 15.8991 23.9047C15.8991 24.1217 15.8991 24.3501 15.8991 24.5785ZM34.7084 34.3886C34.7198 34.2287 34.7427 34.1145 34.7427 34.0118C34.7427 30.2202 34.7541 26.4172 34.7312 22.6257C34.7312 22.3858 34.5485 22.0889 34.3658 21.929C31.1452 19.211 27.9133 16.5043 24.6813 13.8091C24.5671 13.7064 24.4301 13.6378 24.2588 13.5122C24.2588 17.2467 24.2588 20.9012 24.2588 24.6128C25.298 24.6128 26.303 24.6128 27.308 24.6128C28.3701 24.6128 28.4615 24.7156 28.4615 25.8005C28.45 28.4386 28.4386 31.0767 28.4386 33.7148C28.4386 33.9318 28.4386 34.1602 28.4386 34.4001C30.5514 34.3886 32.5956 34.3886 34.7084 34.3886ZM36.0674 23.3566C36.0674 27.1024 36.0674 30.7341 36.0674 34.4115C37.3122 34.4115 38.5228 34.4115 39.7334 34.4115C40.9782 34.4115 41.0353 34.4686 41.0353 35.7362C41.0353 38.3515 41.0353 40.9782 41.0353 43.5934C41.0353 43.7876 41.0353 43.9932 41.0353 44.1759C42.8854 44.1759 44.6441 44.1759 46.4371 44.1759C46.4485 44.0388 46.4714 43.9246 46.4714 43.8219C46.4714 40.0189 46.4828 36.2273 46.4599 32.4243C46.4599 32.2073 46.3001 31.9218 46.1288 31.7734C43.1366 29.2495 40.1445 26.737 37.1409 24.2245C36.7983 23.9618 36.4671 23.6878 36.0674 23.3566Z" fill="black" stroke="black" stroke-width="0.3"/>
<path d="M47.9216 12.907C45.5919 12.907 43.2507 12.907 40.921 12.907C39.8018 12.907 39.3221 12.4159 39.3221 11.3196C39.3221 8.1333 39.3221 4.94702 39.3221 1.74932C39.3221 0.687222 39.8246 0.161886 40.8867 0.161886C45.6376 0.150465 50.377 0.150465 55.1279 0.161886C56.1786 0.161886 56.6696 0.698643 56.6696 1.77216C56.6696 4.95844 56.6696 8.14472 56.6696 11.3424C56.6696 12.4159 56.1786 12.9184 55.1051 12.9184C52.7068 12.907 50.3199 12.907 47.9216 12.907ZM55.3563 1.49807C50.4341 1.49807 45.5462 1.49807 40.624 1.49807C40.624 2.81141 40.624 4.09049 40.624 5.41525C40.7839 5.41525 40.9095 5.41525 41.0352 5.41525C43.9017 5.35815 46.5398 5.95201 48.6982 7.98483C48.801 8.0762 49.0637 8.06478 49.2236 8.01909C50.1829 7.74501 51.1193 7.34529 52.1015 7.17399C53.1522 6.97984 54.2371 6.99126 55.3449 6.91132C55.3563 5.15258 55.3563 3.33675 55.3563 1.49807ZM45.5576 11.6051C46.3228 10.5887 46.9738 9.69789 47.6476 8.79568C46.3913 7.26535 42.6683 6.36314 40.6469 6.83138C40.6469 8.41881 40.6469 10.0062 40.6469 11.6051C42.3714 11.6051 44.0616 11.6051 45.5576 11.6051ZM47.1451 11.4566C47.1907 11.4909 47.2364 11.5366 47.2707 11.5708C49.9659 11.5708 52.6611 11.5708 55.3563 11.5708C55.3563 10.4745 55.3563 9.41238 55.3563 8.32744C52.8438 8.14472 50.4912 8.47591 48.4584 10.0405C47.9559 10.4288 47.579 10.9884 47.1451 11.4566Z" fill="black" stroke="black" stroke-width="0.3"/>
<path d="M49.4064 3.07342C50.0802 3.08484 50.6169 3.65586 50.6055 4.32966C50.5941 5.00346 50.0231 5.55164 49.3492 5.54022C48.6754 5.5288 48.1273 4.94636 48.1387 4.27255C48.1615 3.61017 48.7326 3.062 49.4064 3.07342Z" fill="black" stroke="black" stroke-width="0.3"/>
</svg>
